<?xml version="1.0" standalone="no"?>
<!DOCTYPE svg PUBLIC "-//W3C//DTD SVG 1.1//EN" "http://www.w3.org/Graphics/SVG/1.1/DTD/svg11.dtd" >
<svg xmlns="http://www.w3.org/2000/svg">
<metadata>Generated by IcoMoon</metadata>
<defs>
<font id="icon" horiz-adv-x="1024">
<font-face units-per-em="1024" ascent="960" descent="-64" />
<missing-glyph horiz-adv-x="1024" />
<glyph unicode="&#x20;" horiz-adv-x="512" d="" />
<glyph unicode="&#xe600;" glyph-name="info-1" d="M511.996 859.998c-227.538 0-411.996-184.456-411.996-411.996 0-227.542 184.458-412 411.996-412 227.542 0 412.004 184.458 412.004 412 0 227.54-184.46 411.996-412.004 411.996zM578.050 205.516h-128.1v300.596h128.1v-300.596zM514 566.232c-38.176 0-69.126 30.952-69.126 69.128s30.95 69.126 69.126 69.126c38.18 0 69.124-30.952 69.124-69.126 0-38.178-30.944-69.128-69.124-69.128z" />
<glyph unicode="&#xe601;" glyph-name="info" d="M511.996 779.998c183.48 0 332.004-148.482 332.004-331.996 0-183.482-148.49-332-332.004-332-183.48 0-331.996 148.486-331.996 332 0 183.48 148.486 331.996 331.996 331.996zM511.996 859.998c-227.538 0-411.996-184.456-411.996-411.996 0-227.542 184.458-412 411.996-412 227.542 0 412.004 184.458 412.004 412 0 227.54-184.46 411.996-412.004 411.996v0zM571.644 224.866h-115.292v273.934h115.292v-273.934zM514 555.464c-35.044 0-63.458 28.412-63.458 63.46 0 35.044 28.412 63.458 63.458 63.458 35.048 0 63.456-28.412 63.456-63.458 0-35.048-28.408-63.46-63.456-63.46z" />
<glyph unicode="&#xe602;" glyph-name="x-mark" d="M876.786 210.81l-237.272 237.236 237.242 237.258-127.566 127.482-237.2-237.236-237.24 237.206-127.536-127.46 237.278-237.262-237.248-237.284 127.46-127.536 237.3 237.318 237.3-237.288z" />
<glyph unicode="&#xe603;" glyph-name="time" d="M734 369h-279v307h90v-217h189v-90zM512 770c-177.984 0-322-144.044-322-322 0-177.984 144.046-322 322-322 177.984 0 322 144.046 322 322 0 177.986-144.046 322-322 322zM512 860c227.542 0 412-184.458 412-412s-184.458-412-412-412-412 184.458-412 412 184.458 412 412 412z" />
<glyph unicode="&#xe604;" glyph-name="tag" d="M100.132 859.474v-368.618l454.594-454.856 369.14 369.144-454.854 454.856-368.88-0.526zM338.602 625.266c-30.060-30.058-78.792-30.058-108.85 0s-30.058 78.792 0 108.85c30.056 30.058 78.79 30.058 108.85 0s30.060-78.79 0-108.85z" />
<glyph unicode="&#xe606;" glyph-name="plus" d="M924 540.944h-319.058v319.056h-185.884v-319.056h-319.058v-185.884h319.058v-319.060h185.884v319.060h319.058z" />
<glyph unicode="&#xe607;" glyph-name="pencil" d="M344.712 83.266l-244.712-45.164 49.364 240.516 195.348-195.352zM205.926 335.192l195.364-195.364 522.71 522.71-195.364 195.362-522.71-522.708z" />
<glyph unicode="&#xe608;" glyph-name="compose" d="M512 780c183.486 0 332-148.49 332-332 0-183.486-148.49-332-332-332-183.486 0-332 148.49-332 332 0 183.486 148.49 332 332 332zM512 860c-227.542 0-412-184.458-412-412s184.458-412 412-412 412 184.458 412 412-184.458 412-412 412v0zM362.5 408.292l113.72-113.656-150.47-34.058 36.75 147.714zM739.634 554.306l-224.932-224.798-117.184 117.12 224.942 224.796 117.174-117.118z" />
<glyph unicode="&#xe609;" glyph-name="upload-image" d="M326.732 490.048c-30.986 0-56.112 25.12-56.112 56.108 0 30.984 25.124 56.106 56.112 56.106 30.984 0 56.106-25.122 56.106-56.106 0-30.988-25.122-56.108-56.106-56.108zM567.718 235.738h-394.208v424.524h610.138v-126.152c26.026-1.814 50.8-8.234 73.51-18.46v218.122h-757.158v-571.542h517.538c-21.3 20.658-38.378 45.638-49.82 73.508zM552.134 302.27c-4.3 60.532 16.576 118.25 56.146 161.598l-53.076 80.492-93.004-132.148-50.544 52.102-142.618-162.044h283.096zM924 317.81c0-85.928-69.656-155.582-155.582-155.582s-155.586 69.654-155.586 155.582c0 85.926 69.66 155.582 155.586 155.582s155.582-69.656 155.582-155.582zM864.036 341.55h-67.346v67.344h-52.012v-67.344h-67.346v-52.010h67.346v-67.346h52.012v67.346h67.346v52.010z" />
<glyph unicode="&#xe60a;" glyph-name="refresh" d="M746.446 674.854l-74.504-74.506c-40.45 40.448-96.324 65.462-158.042 65.462-123.438 0-223.504-100.112-223.504-223.552 0-0.032 0 0.032 0 0h86.824l-138.684-138.63-138.536 138.63h85.028c0 0.016 0-0.012 0 0 0 181.632 147.242 328.92 328.872 328.92 90.814 0 173.034-36.81 232.546-96.324zM924 453.742l-138.536 138.632-138.684-138.632h86.824c0-0.032 0 0.034 0 0 0-123.44-100.066-223.552-223.504-223.552-61.718 0-117.594 25.016-158.042 65.462l-74.504-74.506c59.516-59.514 141.734-96.324 232.546-96.324 181.628 0 328.872 147.288 328.872 328.918 0 0.014 0-0.016 0 0h85.028z" />
<glyph unicode="&#xe60b;" glyph-name="check-mark" d="M796.436 774.030l-396.978-396.98-171.95 171.998-127.508-127.532 299.466-299.546 524.534 524.578z" />
<glyph unicode="&#xe60c;" glyph-name="radio" d="M803.82 738.136c74.254-74.252 120.18-176.832 120.18-290.138 0-113.308-45.926-215.886-120.18-290.14l-63.6 63.6c57.974 57.978 93.834 138.070 93.834 226.542 0 88.468-35.86 168.562-93.834 226.54l63.6 63.596zM619.644 553.958c27.118-27.12 43.888-64.582 43.888-105.96 0-41.38-16.772-78.844-43.888-105.96l67.134-67.134c44.3 44.296 71.698 105.496 71.698 173.096s-27.396 128.796-71.698 173.096l-67.134-67.138zM587.806 447.998c0 41.866-33.936 75.812-75.808 75.812-41.87 0-75.804-33.948-75.804-75.812s33.936-75.806 75.804-75.806c41.874 0 75.808 33.94 75.808 75.806zM220.18 157.864c-74.254 74.252-120.18 176.832-120.18 290.138 0 113.308 45.926 215.886 120.18 290.14l63.6-63.6c-57.974-57.978-93.834-138.070-93.834-226.542 0-88.468 35.86-168.562 93.834-226.54l-63.6-63.596zM404.356 342.042c-27.118 27.12-43.888 64.582-43.888 105.96 0 41.38 16.772 78.844 43.888 105.96l-67.134 67.134c-44.3-44.296-71.698-105.496-71.698-173.096s27.396-128.796 71.698-173.096l67.134 67.138z" />
<glyph unicode="&#xe60d;" glyph-name="globe" d="M512 860c-227.542 0-412-184.46-412-412 0-227.542 184.458-412 412-412s412 184.458 412 412c0 227.54-184.458 412-412 412zM809.484 588.526h-87.17c-11.442 53.372-29.582 104.212-54.486 149.23 61.71-33.256 111.566-85.648 141.656-149.23zM833.686 379.052h-99.984c4.386 44.122 4.592 89.742 0.056 135.79h100.386c9.184-44.49 9.11-90.95-0.458-135.79zM475.158 771.488v-182.96h-96.666c17.61 71.508 49.384 137.046 96.666 182.96zM365.478 514.842h109.68v-135.79h-109.612c-4.92 43.84-5.242 89.274-0.068 135.79zM475.158 305.37v-182.358c-47.148 45.786-78.88 111.082-96.52 182.358h96.52zM548.842 121.94v183.43h97.636c-17.776-71.836-49.872-137.596-97.636-183.43zM659.57 379.052h-110.728v135.79h110.796c4.876-43.842 5.152-89.278-0.068-135.79zM548.842 588.526v184.034c47.896-45.964 80.034-111.962 97.782-184.034h-97.782zM357.744 738.586c-25.138-45.22-43.432-96.36-54.944-150.060h-88.286c30.346 64.12 80.8 116.85 143.23 150.060zM189.856 514.842h101.502c-4.288-43.588-4.576-89.178 0.058-135.79h-101.102c-9.558 44.794-9.652 91.252-0.458 135.79zM215.498 305.37h87.438c11.338-52.628 29.196-102.8 53.642-147.34-61.214 32.878-110.824 84.564-141.080 147.34zM669 158.87c24.212 44.33 41.914 94.206 53.182 146.5h86.318c-29.992-62.24-79.008-113.582-139.5-146.5z" />
<glyph unicode="&#xe610;" glyph-name="greater-than" d="M284.664 750.228l110.296 109.772 410.040-412-410.040-412-110.296 109.774 300.79 302.226z" />
<glyph unicode="&#xe611;" glyph-name="help" d="M512 860c-227.542 0-412-184.458-412-412s184.458-412 412-412 412 184.458 412 412-184.458 412-412 412zM516.5 174.2c-32.324 0-58.54 26.214-58.54 58.55 0 32.32 26.214 58.526 58.54 58.526 32.332 0 58.54-26.206 58.54-58.526 0-32.336-26.208-58.55-58.54-58.55zM562.524 347.23v-10.532c0 0-87.766 0-96.496 0v10.532c0 29.796 4.348 68.024 38.942 101.256 34.598 33.238 77.832 60.692 77.832 102.212 0 45.9-31.856 70.18-72.020 70.18-66.926 0-71.3-69.41-72.95-84.694h-93.856c2.5 72.378 33.090 173.616 167.368 173.616 116.364 0 168.68-77.934 168.68-151.016 0-116.324-117.5-136.53-117.5-211.554z" />
<glyph unicode="&#xe614;" glyph-name="stream-inverted" d="M116.568 564c50.1 171.058 208.156 295.998 395.416 295.998 251.11 0 444.416-222.948 407.54-472.664h-33.54c-42.594 0-48.004 5-70.852 68.38-18.14 50.312-42.444 112.286-98.578 112.286-56.136 0-79.18-62.484-98.578-112.288-16.090-41.314-23.524-65.912-37.496-65.912-13.55 0-20.98 24-37.5 65.912-19.59 49.714-42.444 112.288-98.578 112.288s-79.936-62.14-98.58-112.286c-16.702-44.916-23.032-65.914-37.504-65.914-13.878 0-19.382 21.6-37.506 65.914-20.212 49.418-43.162 108.286-104.58 108.286h-49.664zM852.632 320c-56.136 0-78.77 58.676-98.578 108.288-20.328 50.912-24.456 67.712-37.5 67.712-13.106 0-18.426-20.798-37.5-67.712-20.108-49.468-42.44-112.288-98.574-112.288-56.136 0-79.332 62.414-98.58 112.286-17.912 46.414-23.142 65.914-37.5 65.914-13.716 0-18.67-18.6-37.506-65.914-19.754-49.636-42.442-112.286-98.576-112.286-56.136 0-80.75 61.868-98.582 112.286-22.422 63.382-29.176 68.714-71.086 68.714h-35.754c-29.268-246.872 163.546-460.998 409.088-460.998 182.848 0 337.852 119.126 391.696 283.998h-51.048z" />
<glyph unicode="&#xe615;" glyph-name="stream" d="M512.002 859.998c-227.544 0-412.002-184.46-412.002-411.998 0-227.546 184.458-411.998 412.002-411.998 227.538 0 411.998 184.452 411.998 411.998 0 227.538-184.46 411.998-411.998 411.998zM512.002 779.998c183.474 0 331.998-148.49 331.998-331.998 0-21.266-2.008-42.222-5.89-62.666h-23.070c-33.474 0-38.79 8.448-56.86 70.996-13.074 45.264-34.834 113.67-82.686 113.67-48.768 0-67.606-70.904-85.18-128.228-9.554-31.162-15.32-49.97-23.856-49.97-8.264 0-12.12 18.84-21.82 50.052-18.124 58.312-38.848 128.146-87.216 128.146-50.25 0-71.714-76.416-86.070-125.084-10.452-35.366-13.696-53.116-22.97-53.116-7.876 0-10.418 14.382-19.468 43.040-20.626 65.284-36.414 131.16-98.382 131.16h-29.026c46.552 122.642 166.092 213.998 310.496 213.998zM512.002 116.002c-183.486 0-332.002 148.484-332.002 331.998 0 17.24 1.322 34.274 3.884 51h28.544c32.282 0 35.444-8.478 53.256-71.32 12.050-42.518 34.22-113.68 82.696-113.68 49.066 0 69.816 72.342 88.544 132.26 10.148 32.492 12.354 45.94 20.496 45.94 8.722 0 11.262-14.954 21.208-47.716 18.008-59.268 38.8-130.484 87.83-130.484 43.952 0 64.94 58.764 80.198 105.982 17.406 53.944 19.966 74.018 28.838 74.018 9.026 0 10.718-17.486 26.368-66.386 16.136-50.442 36.428-107.614 82.67-107.614h33.986c-48.986-117.294-165.836-203.998-306.516-203.998z" />
<glyph unicode="&#xe616;" glyph-name="power" d="M512 780c88.68 0 172.050-34.534 234.758-97.242 62.706-62.706 97.242-146.078 97.242-234.758s-34.536-172.050-97.242-234.758-146.078-97.242-234.758-97.242-172.052 34.536-234.76 97.242c-62.704 62.708-97.24 146.078-97.24 234.758s34.536 172.052 97.24 234.76c62.708 62.706 146.080 97.24 234.76 97.24zM512 860c-227.542 0-412-184.458-412-412 0-227.54 184.458-412 412-412 227.54 0 412 184.46 412 412 0 227.542-184.46 412-412 412zM582 264h-140v368h140v-368z" />
<glyph unicode="&#xe617;" glyph-name="radio-filled" d="M512 738c77.46 0 150.288-30.166 205.060-84.94s84.94-127.6 84.94-205.060-30.166-150.288-84.94-205.060-127.6-84.94-205.060-84.94-150.288 30.166-205.060 84.94-84.94 127.6-84.94 205.060 30.166 150.288 84.94 205.060 127.6 84.94 205.060 84.94zM512 818c-204.346 0-370-165.656-370-370s165.654-370 370-370c204.344 0 370 165.656 370 370s-165.656 370-370 370zM512 638c-104.934 0-190-85.066-190-190s85.066-190 190-190 190 85.066 190 190-85.066 190-190 190z" />
<glyph unicode="&#xe61a;" glyph-name="wrench" d="M512 860c-227.542 0-412-184.458-412-412s184.458-412 412-412c227.432 0 412 184.416 412 412 0 227.542-184.458 412-412 412zM805.262 292.034l-57.928 57.928c-22.498 22.498-34.14 53.636-31.958 85.376 3.918 56.952-15.88 115.22-59.416 158.756-57.246 57.246-139.968 73.458-211.664 48.666l130.164-130.166c2.988-50.78-75.528-129.292-126.306-126.304l-130.162 130.164c-24.792-71.696-8.582-154.42 48.664-211.666 43.534-43.536 101.804-63.332 158.756-59.414 31.71 2.182 62.9-9.48 85.376-31.958l58.152-58.15c-47.688-25.648-101.266-39.266-156.94-39.266-88.682 0-172.054 34.534-234.76 97.24s-97.24 146.078-97.24 234.76 34.534 172.054 97.24 234.76c62.706 62.706 146.078 97.24 234.76 97.24s172.054-34.534 234.76-97.24c62.706-62.706 97.24-146.078 97.24-234.76 0-55.294-13.43-108.522-38.738-155.966z" />
<glyph unicode="&#xe61b;" glyph-name="radio2" d="M512 738c77.46 0 150.288-30.166 205.060-84.94s84.94-127.6 84.94-205.060-30.166-150.288-84.94-205.060-127.6-84.94-205.060-84.94-150.288 30.166-205.060 84.94-84.94 127.6-84.94 205.060 30.166 150.288 84.94 205.060 127.6 84.94 205.060 84.94zM512 818c-204.346 0-370-165.656-370-370s165.654-370 370-370c204.344 0 370 165.656 370 370s-165.656 370-370 370z" />
<glyph unicode="&#xe61c;" glyph-name="checkbox-checked" d="M924.556 689.342l-433.978-434.010-239.134 239.2 101.822 101.84 137.308-137.348 332.118 332.118 101.864-101.8zM719.444 399.358v-221.358h-540v540h485.254l80 80h-645.254v-700h700v381.364l-80-80.006z" />
<glyph unicode="&#xe61d;" glyph-name="menu" d="M924 633h-824v130h824v-130zM924 513h-824v-130h824v130zM924 263h-824v-130h824v130z" />
<glyph unicode="&#xe61e;" glyph-name="checkbox-checked-small" d="M782 718v-540h-540v540h540zM862 798h-700v-700h700v700zM670.776 624.788l-216.014-216.010-93.566 93.588-69.38-69.394 162.952-162.996 285.42 285.444-69.412 69.368z" />
<glyph unicode="&#xe61f;" glyph-name="checkbox" d="M782 718v-540h-540v540h540zM862 798h-700v-700h700v700z" />
<glyph unicode="&#xe620;" glyph-name="check-circle-inverted" d="M512 860c-227.542 0-412-184.458-412-412s184.458-412 412-412 412 184.458 412 412-184.458 412-412 412zM441.906 226.082l-194.652 194.704 82.88 82.896 111.768-111.798 258.036 258.036 82.918-82.862-340.95-340.976z" />
<glyph unicode="&#xe621;" glyph-name="check-circle" d="M924 448c0-227.542-184.458-412-412-412s-412 184.458-412 412 184.458 412 412 412 412-184.458 412-412zM844 448c0 183.51-148.516 332-332 332-183.51 0-332-148.518-332-332 0-183.51 148.516-332 332-332 183.51 0 332 148.518 332 332zM676.448 624.726l-232.232-232.232-100.592 100.62-74.592-74.606 175.186-175.234 306.856 306.876-74.626 74.576z" />
<glyph unicode="&#xe622;" glyph-name="eject" d="M714.652 441.196h-405.306l202.654 202.97 202.652-202.97zM714.652 386.634h-405.306v-68.864h405.306v68.864zM180 448c0-183.51 148.516-332 332-332 183.51 0 332 148.518 332 332 0 183.51-148.516 332-332 332-183.51 0-332-148.518-332-332zM924 448c0-227.542-184.458-412-412-412s-412 184.458-412 412 184.458 412 412 412 412-184.458 412-412z" />
<glyph unicode="&#xe623;" glyph-name="bolt" d="M512.834 780c88.68 0 172.052-34.534 234.76-97.24 62.708-62.708 97.24-146.080 97.24-234.76s-34.534-172.052-97.24-234.76c-62.708-62.706-146.080-97.24-234.76-97.24s-172.052 34.536-234.76 97.24c-62.708 62.708-97.24 146.080-97.24 234.76s34.534 172.052 97.24 234.76c62.708 62.706 146.080 97.24 234.76 97.24zM512.834 860c-227.542 0-412-184.458-412-412s184.458-412 412-412 412 184.458 412 412-184.458 412-412 412v0zM596.054 698.204l-222.292-301.15h123.914l-70.594-195.258 244.822 286.88h-149.070l73.22 209.528z" />
<glyph unicode="&#xe624;" glyph-name="star" d="M512 839.836l97.26-299.336h314.74l-254.628-185 97.258-299.336-254.63 185-254.63-185 97.26 299.336-254.63 185h314.74z" />
<glyph unicode="&#xe625;" glyph-name="twitter" d="M924 703.554c-30.316-13.448-62.898-22.538-97.094-26.62 34.898 20.922 61.708 54.050 74.328 93.528-32.666-19.374-68.844-33.442-107.352-41.022-30.836 32.856-74.772 53.382-123.396 53.382-109.12 0-189.336-101.832-164.674-207.574-140.5 7.048-265.068 74.354-348.446 176.628-44.284-75.966-22.97-175.382 52.316-225.7-27.708 0.876-53.782 8.482-76.57 21.148-1.834-78.324 54.292-151.562 135.59-167.898-23.792-6.474-49.852-7.956-76.34-2.894 21.508-67.16 83.944-116.036 157.92-117.398-71.074-55.698-160.59-80.576-250.282-70.006 74.812-47.964 163.674-75.954 259.142-75.954 313.864 0 491.19 265.102 480.502 502.87 33.034 23.834 61.692 53.608 84.356 87.51z" />
<glyph unicode="&#xe626;" glyph-name="linkedin" d="M301.3 758.636c0-55.984-45.016-101.366-100.546-101.366s-100.546 45.382-100.546 101.366c0 55.982 45.016 101.364 100.546 101.364 55.532 0 100.546-45.382 100.546-101.364zM286.588 585.334h-170.034v-549.334h170.034v549.334zM558.39 585.334h-163.082v-549.334h163.082c0 0 0 203.754 0 288.362 0 77.248 35.558 123.23 103.614 123.23 62.536 0 92.578-44.142 92.578-123.23 0-79.090 0-288.362 0-288.362h169.21c0 0 0 200.688 0 347.83s-83.378 218.262-199.868 218.262-165.536-90.738-165.536-90.738v73.98z" />
<glyph unicode="&#xe628;" glyph-name="facebook" d="M408.134 590.616h-86.288v-140.852h86.288v-413.764h165.93v415.524h115.764l12.324 139.092h-128.088c0 0 0 51.94 0 79.23 0 32.796 6.604 45.78 38.294 45.78 25.532 0 89.792 0 89.792 0v144.374c0 0-94.652 0-114.882 0-123.468 0-179.134-54.358-179.134-158.462 0-90.67 0-110.922 0-110.922z" />
<glyph unicode="&#xe62b;" glyph-name="face" d="M512 780c183.482 0 332-148.486 332-332 0-183.484-148.486-332-332-332-183.48 0-332 148.486-332 332 0 183.482 148.488 332 332 332zM512 860c-227.542 0-412-184.458-412-412s184.458-412 412-412c227.542 0 412 184.458 412 412s-184.458 412-412 412zM399.332 597c-34.24 0-62-27.76-62-62s27.76-62 62-62c34.242 0 62 27.76 62 62s-27.758 62-62 62zM632.666 597c-34.242 0-62-27.76-62-62s27.758-62 62-62 62 27.76 62 62-27.758 62-62 62zM676 366h-316v-76h316v76z" />
<glyph unicode="&#xe62e;" glyph-name="arrow-left" d="M463.458 82.802l97.766 97.302-193.928 194.856h556.704v146.080h-556.704l193.928 194.856-97.766 97.302-363.458-365.198z" />
<glyph unicode="&#xe62f;" glyph-name="triangle" d="M512.002 773.998l411.998-595.996h-824z" />
<glyph unicode="&#xe803;" glyph-name="thumbs-up-right" d="M636.032 896c-23.424-4.224-45.632-20.032-60.032-44.032-19.2-32-140.416-276.416-166.016-302.016s-51.584-38.016-89.984-38.016v-512h448c25.6 0 51.584 18.816 57.984 38.016 0 0 134.016 371.584 134.016 409.984s-25.6 64-64 64h-192c-38.4 0-64 32-64 64s51.2 204.032 64 236.032c6.4 32-12.032 71.232-44.032 84.032-8 1.6-16.192 1.408-24 0zM64 512v-512h192v512h-192z" />
<glyph unicode="&#xe804;" glyph-name="list" d="M512 780c88.68 0 172.052-34.534 234.76-97.24 62.704-62.708 97.24-146.080 97.24-234.76s-34.536-172.052-97.24-234.76c-62.708-62.706-146.080-97.24-234.76-97.24s-172.052 34.534-234.76 97.24c-62.706 62.708-97.24 146.080-97.24 234.76s34.534 172.052 97.24 234.76c62.708 62.706 146.080 97.24 234.76 97.24zM512 860c-227.542 0-412-184.458-412-412s184.458-412 412-412 412 184.458 412 412-184.458 412-412 412zM719.94 539.576h-407.88v64.35h407.88v-64.35zM719.94 480.176h-407.88v-64.35h407.88v64.35zM719.94 356.426h-407.88v-64.35h407.88v64.35z" />
<glyph unicode="&#xe806;" glyph-name="thumbs-up-left" d="M387.968 896c23.424-4.224 45.632-20.032 60.032-44.032 19.2-32 140.416-276.416 166.016-302.016s51.584-38.016 89.984-38.016v-512h-448c-25.6 0-51.584 18.816-57.984 38.016 0 0-134.016 371.584-134.016 409.984s25.6 64 64 64h192c38.4 0 64 32 64 64s-51.2 204.032-64 236.032c-6.4 32 12.032 71.232 44.032 84.032 8 1.6 16.192 1.408 24 0zM960 512v-512h-192v512h192z" />
<glyph unicode="&#xe807;" glyph-name="send" d="M924 850.090l-213.258-764.464-271.84 257.684 267.874 282.69-359.060-248.148-247.716 60.202 824 412.036zM405.984 294.944v-249.034l117.476 135.854-117.476 113.18z" />
<glyph unicode="&#xe80b;" glyph-name="arrow-up" d="M146.802 496.542l97.302-97.766 194.856 193.928v-556.704h146.080v556.704l194.856-193.928 97.302 97.766-365.198 363.458z" />
<glyph unicode="&#xe80c;" glyph-name="arrow-right" d="M560.542 813.198l-97.766-97.302 193.928-194.856h-556.704v-146.080h556.704l-193.928-194.856 97.766-97.302 363.458 365.198z" />
<glyph unicode="&#xe80d;" glyph-name="arrow-down" d="M877.198 399.458l-97.302 97.766-194.856-193.928v556.704h-146.080v-556.704l-194.856 193.928-97.302-97.766 365.198-363.458z" />
<glyph unicode="&#xe900;" glyph-name="facebook-full-2" d="M704.962-64h202.414c64.414 0 116.624 52.215 116.624 116.624v790.751c0 64.414-52.215 116.624-116.624 116.624h-790.751c-64.414 0-116.624-52.215-116.624-116.624v-790.751c0-64.414 52.215-116.624 116.624-116.624h393.87v426.582h-101.128v165.076h101.128v129.999c0 122.008 65.24 185.715 209.942 185.715h134.64v-169.204h-105.235c-37.14 0-44.88-15.217-44.88-53.653v-92.856h150.117l-14.444-163.013h-135.673v-428.645z" />
<glyph unicode="&#xe901;" glyph-name="linkedin-full-2" d="M0 843.376c0 64.41 52.21 116.624 116.624 116.624h790.751c64.41 0 116.624-52.21 116.624-116.624v-790.751c0-64.41-52.21-116.624-116.624-116.624h-790.751c-64.41 0-116.624 52.21-116.624 116.624v790.751zM330.784 715.721v0c0 48.458-38.964 87.741-87.033 87.741-48.067 0-87.033-39.283-87.033-87.741 0-48.46 38.966-87.743 87.033-87.743s87.033 39.283 87.033 87.743zM318.049 565.711h-147.182v-475.506h147.182v475.506zM412.157 565.711v-475.506h141.164v249.607c0 66.866 30.779 106.668 89.689 106.668 54.131 0 80.136-38.209 80.136-106.668v-249.607h146.469v301.083c0 127.367-72.172 188.928-173.006 188.928s-143.289-78.543-143.289-78.543v64.037h-141.163z" />
<glyph unicode="&#xe902;" glyph-name="facebook-full" d="M967.019 959.833c15.55 0 28.88-5.554 39.987-16.662s16.662-24.437 16.662-39.987v-910.37c0-15.55-5.554-28.88-16.662-39.987s-24.437-16.662-39.987-16.662h-260.582v396.538h132.623l19.994 154.616h-152.617v98.634c0 24.881 5.221 43.541 15.662 55.982s30.768 18.661 60.98 18.661l81.307 0.666v137.955c-27.991 3.999-67.533 5.998-118.628 5.998-60.425 0-108.742-17.772-144.953-53.316s-54.316-85.75-54.315-150.618v-113.963h-133.29v-154.616h133.29v-396.538h-489.841c-15.55 0-28.88 5.554-39.987 16.662s-16.662 24.437-16.662 39.987v910.37c0 15.55 5.554 28.88 16.662 39.987s24.437 16.662 39.987 16.662h910.37z" />
<glyph unicode="&#xe903;" glyph-name="linkedin-full" d="M0 906.342c0 29.634 24.022 53.658 53.658 53.658h916.685c29.634 0 53.658-24.022 53.658-53.658v-916.685c0-29.634-24.022-53.658-53.658-53.658h-916.685c-29.634 0-53.658 24.022-53.658 53.658v916.685zM330.784 715.721v0c0 48.458-38.964 87.741-87.033 87.741-48.067 0-87.033-39.283-87.033-87.741 0-48.46 38.966-87.743 87.033-87.743s87.033 39.283 87.033 87.743zM318.049 565.711h-147.182v-475.506h147.182v475.506zM412.157 565.711v-475.506h141.164v249.607c0 66.866 30.779 106.668 89.689 106.668 54.131 0 80.136-38.209 80.136-106.668v-249.607h146.469v301.083c0 127.367-72.172 188.928-173.006 188.928s-143.289-78.543-143.289-78.543v64.037h-141.163z" />
<glyph unicode="&#xe904;" glyph-name="camera" d="M768 746.667l-85.333 128h-341.333l-85.333-128h-256v-725.333h1024v725.333h-256zM938.667 448h-174.080c24.832-160.171-98.56-298.667-252.587-298.667-154.112 0-277.333 138.581-252.587 298.667h-174.080v213.333h216.32l85.333 128h250.027l85.333-128h216.32v-213.333zM512 576c-95.701 0-170.667-73.813-170.667-168.107 0-95.445 76.544-173.227 170.667-173.227s170.667 77.739 170.667 173.227c0 94.293-74.965 168.107-170.667 168.107zM493.397 424.32c-26.965-21.461-62.293-21.333-79.019 0.256-16.64 21.632-8.277 56.533 18.688 77.995 26.965 21.419 62.293 21.333 78.933-0.299 16.725-21.504 8.363-56.405-18.603-77.867z" />
<glyph unicode="&#xe905;" glyph-name="picture" d="M213.333 597.333c0 35.346 28.654 64 64 64s64-28.654 64-64c0-35.346-28.654-64-64-64s-64 28.654-64 64zM597.333 576l-107.52-170.667-105.813 83.627-170.667-254.293h597.333l-213.333 341.333zM938.667 746.667v-597.333h-853.333v597.333h853.333zM1024 832h-1024v-768h1024v768z" />
<glyph unicode="&#xe906;" glyph-name="more" d="M512 874.667c235.264 0 426.667-191.403 426.667-426.667s-191.403-426.667-426.667-426.667-426.667 191.403-426.667 426.667 191.403 426.667 426.667 426.667zM512 960c-282.752 0-512-229.248-512-512s229.248-512 512-512 512 229.248 512 512-229.248 512-512 512zM320 362.667c-35.346 0-64 28.654-64 64s28.654 64 64 64c35.346 0 64-28.654 64-64s-28.654-64-64-64zM512 362.667c-35.346 0-64 28.654-64 64s28.654 64 64 64c35.346 0 64-28.654 64-64s-28.654-64-64-64zM704 362.667c-35.346 0-64 28.654-64 64s28.654 64 64 64c35.346 0 64-28.654 64-64s-28.654-64-64-64z" />
<glyph unicode="&#xe907;" glyph-name="user" d="M512 960c-282.752 0-512-229.248-512-512s229.248-512 512-512 512 229.248 512 512-229.248 512-512 512zM842.795 178.987c-11.093 25.003-33.707 42.24-79.787 52.907-97.877 22.613-189.013 42.411-144.811 125.696 134.144 253.568 35.456 389.077-106.197 389.077-144.555 0-240.811-140.8-106.24-389.12 45.525-83.755-48.939-103.509-144.725-125.611-46.251-10.667-68.608-28.075-79.659-53.163-59.789 72.619-96.043 166.57-96.043 268.989 0 0.083 0 0.167 0 0.25 0 235.251 191.403 426.654 426.667 426.654s426.667-191.403 426.667-426.667c0-101.973-36.053-195.541-95.872-269.013z" />
<glyph unicode="&#xe908;" glyph-name="hand" d="M888.533 448c-9.728-25.173-130.219-298.581-160.939-367.531-32.256-72.32-95.147-144.469-211.2-144.469h-201.813c-122.24 0-186.581 72.533-186.581 199.381v553.6c0 73.387 101.12 69.675 101.12 3.413v-242.773c0-19.925 36.608-19.797 36.608 0v390.144c0 75.52 113.067 73.515 113.067 0v-368.213c0-20.267 34.005-19.413 34.005 0.427v432.128c0 73.387 111.957 75.605 111.957 0v-437.163c0-19.627 35.243-20.053 35.243 0v367.104c0 69.547 122.581 71.68 122.581 0v-416c0-25.472 25.003-29.525 34.56-10.069 9.045 18.475 46.507 101.035 46.933 101.973 37.675 78.848 163.499 30.933 124.373-61.952z" />
<glyph unicode="&#xe909;" glyph-name="smiley-laugh" d="M512 874.667c235.264 0 426.667-191.403 426.667-426.667s-191.403-426.667-426.667-426.667-426.667 191.403-426.667 426.667 191.403 426.667 426.667 426.667zM512 960c-282.752 0-512-229.248-512-512s229.248-512 512-512 512 229.248 512 512-229.248 512-512 512zM768 362.667h-512c14.080-62.507 120.619-170.667 256-170.667 133.76 0 241.792 107.52 256 170.667zM362.667 618.667c-35.346 0-64-28.654-64-64s28.654-64 64-64c35.346 0 64 28.654 64 64s-28.654 64-64 64zM661.333 618.667c-35.346 0-64-28.654-64-64s28.654-64 64-64c35.346 0 64 28.654 64 64s-28.654 64-64 64z" />
<glyph unicode="&#xe90a;" glyph-name="smiley-smile" d="M512 874.667c235.264 0 426.667-191.403 426.667-426.667s-191.403-426.667-426.667-426.667-426.667 191.403-426.667 426.667 191.403 426.667 426.667 426.667zM512 960c-282.752 0-512-229.248-512-512s229.248-512 512-512 512 229.248 512 512-229.248 512-512 512zM746.965 365.227c-64.512-51.029-135.424-82.432-234.923-82.432-99.413 0-170.24 31.403-234.667 82.347l-20.907-20.907c47.744-73.515 136.064-152.235 255.531-152.235s207.915 78.763 256 152.149l-21.035 21.035zM362.667 618.667c-35.346 0-64-28.654-64-64s28.654-64 64-64c35.346 0 64 28.654 64 64s-28.654 64-64 64zM661.333 618.667c-35.346 0-64-28.654-64-64s28.654-64 64-64c35.346 0 64 28.654 64 64s-28.654 64-64 64z" />
<glyph unicode="&#xe90b;" glyph-name="search" horiz-adv-x="983" d="M946.586 138.424l-203.817 203.858c40.838 64.281 62.48 138.883 62.382 215.040 0 222.003-180.634 402.637-402.637 402.637s-402.514-180.593-402.514-402.596c0-222.003 180.552-402.637 402.637-402.637 72.404-0.078 143.471 19.501 205.619 56.648l205.701-205.619c87.818-87.736 220.529 44.851 132.71 132.71l-0.082-0.041zM124.846 557.363c0 153.19 124.641 277.791 277.791 277.791s277.709-124.6 277.709-277.791c0-153.19-124.6-277.791-277.709-277.791s-277.873 124.6-277.873 277.791h0.082z" />
<glyph unicode="&#xe90c;" glyph-name="search-2" d="M1016.832 122.027l-290.987 290.987c120.832 250.795-61.952 546.987-344.192 546.987-210.389 0-381.653-171.264-381.653-381.739 0-277.675 287.573-460.715 537.6-348.416l293.547-293.547c83.499-6.955 192.853 99.285 185.685 185.685zM381.696 323.413c-140.501 0-254.848 114.347-254.848 254.848s114.347 254.848 254.848 254.848c140.544 0 254.891-114.347 254.891-254.848s-114.347-254.848-254.891-254.848z" />
<glyph unicode="&#xe90d;" glyph-name="search-3" d="M1015.893 36.437l-264.789 264.747c49.509 67.288 79.232 151.797 79.232 243.249 0 0.133 0 0.265 0 0.398-0.043 228.929-186.197 415.169-415.189 415.169-228.907 0-415.147-186.24-415.147-415.147 0-228.949 186.24-415.147 415.147-415.147 0.143 0 0.312 0 0.482 0 87.312 0 168.295 27.099 234.996 73.344l264.788-267.051 100.437 100.437zM121.728 544.853c0.194 161.972 131.446 293.225 293.4 293.419 161.853 0 293.48-131.627 293.48-293.419s-131.627-293.419-293.419-293.419c-161.964 0.194-293.206 131.451-293.376 293.402z" />
<glyph unicode="&#xe90e;" glyph-name="search-4" d="M1016.405 69.12l-271.061 271.104c39.235 60.925 62.55 135.325 62.55 215.17 0 0.254 0 0.508-0.001 0.762 0.043 222.51-181.12 403.843-403.925 403.843-222.72 0-403.968-181.248-403.968-403.968s181.205-404.053 403.968-404.053c0.13 0 0.284 0 0.438 0 76.083 0 147.224 21.163 207.856 57.924l271.024-273.902 133.12 133.12zM150.528 556.032c0.218 139.866 113.567 253.185 253.424 253.355 139.899-0.145 253.262-113.479 253.456-253.336-0.146-139.931-113.527-253.313-253.426-253.459-139.926 0.146-253.308 113.527-253.454 253.426z" />
<glyph unicode="&#xe90f;" glyph-name="rewind" d="M576 874.667c-240.213 0-435.712-189.269-446.933-426.667h-129.067l193.579-252.459 190.421 252.459h-126.933c11.093 166.485 149.675 298.667 318.933 298.667 176.469 0 320-143.531 320-320s-143.531-320-320-320c-101.367 0.028-191.738 47.348-250.202 121.108l-79.312-103.871c81.893-89.394 199.154-145.237 329.459-145.237 0.020 0 0.039 0 0.059 0 247.378 0 447.997 200.619 447.997 448s-200.619 448-448 448z" />
<glyph unicode="&#xe910;" glyph-name="triangle-right" d="M837.998 447.998l-595.996-411.998v824z" />
</font>
</defs>
</svg>
